<svg width="585" height="200" viewBox="0 0 1349 900" fill="none" xmlns="http://www.w3.org/2000/svg">
<g clip-path="url(#clip0)">
<rect width="1349" height="900" fill="white"/>
<path d="M1349.5 23.5V902.5H615C615 902.5 636 664 944 512.5C1252 361 1294.05 109.368 1349.5 23.5Z" fill="#95FD24"/>
<path d="M310.224 755.694C312.244 845.435 247.897 877.75 167.659 878.965C165.795 878.993 163.94 879.005 162.093 878.998C158.373 878.989 154.69 878.906 151.044 878.749C78.5318 875.64 21.5219 843.553 19.6431 760.094C17.6987 673.724 149.843 562.689 159.756 554.477C159.765 554.477 159.765 554.477 159.774 554.469C160.151 554.157 160.343 554 160.343 554C160.343 554 308.204 665.96 310.224 755.694Z" fill="#95FD24"/>
<path d="M162.38 865.32L214.115 803.623L162.397 872.006L162.412 879C158.694 878.991 155.013 878.907 151.369 878.75L155.071 788.883L155.011 788.189L155.106 788.056L155.459 779.564L100.562 712.627L155.476 773.206L155.65 775.003L158.446 707.105L111.181 637.792L158.739 695.175L160.076 554.468L160.083 554L160.094 554.461L161.84 665.381L206.328 620.724L161.859 674.936L162.022 735.693L203.193 676.76L162.054 744.625L162.145 778.409L221.972 696.339L162.17 790.195L162.38 865.32Z" fill="#3F3D56"/>
<path d="M573.898 769.317C575.662 851.327 519.461 880.858 449.379 881.968C447.751 881.994 446.131 882.004 444.518 881.998C441.269 881.99 438.052 881.914 434.868 881.77C371.534 878.93 321.741 849.607 320.099 773.338C318.401 694.409 433.819 592.941 442.477 585.436C442.485 585.436 442.485 585.436 442.492 585.429C442.821 585.143 442.99 585 442.99 585C442.99 585 572.133 687.314 573.898 769.317Z" fill="#95FD24"/>
<path d="M446.137 866.498L491.079 810.117L446.152 872.609L446.164 879C442.935 878.991 439.737 878.915 436.572 878.772L439.788 796.647L439.735 796.013L439.818 795.891L440.124 788.131L392.436 726.961L440.14 782.321L440.291 783.963L442.72 721.914L401.661 658.573L442.975 711.013L444.136 582.428L444.142 582L444.151 582.421L445.668 683.785L484.314 642.975L445.684 692.517L445.826 748.039L481.591 694.184L445.854 756.202L445.933 787.075L497.904 712.076L445.955 797.846L446.137 866.498Z" fill="#3F3D56"/>
<path d="M616.465 900.96L3.04003 899.153L57.2395 883.274C55.7284 810.648 68.2354 775.434 87.4765 724.734C81.3415 780.579 76.7233 814.502 74.3886 861.918C86.1283 849.783 95.6196 827.231 121.092 808.706C105.248 825.864 96.9875 850.586 83.8278 880.476L236.852 869.998L235.747 833.66C240.145 846.493 243.445 854.422 250.649 869.719C252.909 843.589 258.672 829.944 269.412 805.709C268.336 828.032 268.026 840.025 262.968 869.47C270.739 853.282 274.1 848.723 279.438 843.571C276.857 853.072 275.56 858.258 271.345 869.301L466.468 881.266L458.741 854.151L475.831 881.076C484.675 848.566 487.561 828.699 502.488 800.999C499.438 836.122 497.154 852.151 493.077 880.728L516.394 852.986L509.425 883.238L616.465 900.96Z" fill="#3F3D56"/>
</g>
<defs>
<clipPath id="clip0">
<rect width="1349" height="900" fill="white"/>
</clipPath>
</defs>
</svg>
