<svg width="279" height="197" viewBox="0 0 279 197" fill="none" xmlns="http://www.w3.org/2000/svg">
<g style="mix-blend-mode:darken">
<rect x="39.5" y="0.5" width="208" height="190" rx="15.5" fill="#EEEEEE"/>
<g filter="url(#filter0_d)">
<path d="M11.8047 156.598V167.809H17.4102C18.1784 167.809 18.901 167.665 19.5781 167.379C20.2552 167.079 20.8477 166.676 21.3555 166.168C21.8633 165.66 22.2604 165.068 22.5469 164.391C22.8464 163.701 22.9961 162.971 22.9961 162.203C22.9961 161.435 22.8464 160.712 22.5469 160.035C22.2604 159.345 21.8633 158.746 21.3555 158.238C20.8477 157.73 20.2552 157.333 19.5781 157.047C18.901 156.747 18.1784 156.598 17.4102 156.598H11.8047ZM11.8047 179H6.19922V150.992H17.4102C18.4388 150.992 19.4284 151.129 20.3789 151.402C21.3294 151.663 22.2148 152.04 23.0352 152.535C23.8685 153.017 24.6237 153.603 25.3008 154.293C25.9909 154.97 26.5768 155.725 27.0586 156.559C27.5534 157.392 27.931 158.284 28.1914 159.234C28.4648 160.185 28.6016 161.174 28.6016 162.203C28.6016 163.74 28.3086 165.191 27.7227 166.559C27.1367 167.913 26.3359 169.098 25.3203 170.113C24.3047 171.129 23.1133 171.93 21.7461 172.516C20.3919 173.102 18.9466 173.395 17.4102 173.395H11.8047V179ZM36.668 179H31.3359V158.082H32.625L34.3828 160.562C35.2422 159.781 36.2188 159.182 37.3125 158.766C38.4062 158.336 39.5391 158.121 40.7109 158.121H45.418V163.434H40.7109C40.151 163.434 39.6237 163.538 39.1289 163.746C38.6341 163.954 38.2044 164.241 37.8398 164.605C37.4753 164.97 37.1888 165.4 36.9805 165.895C36.7721 166.389 36.668 166.917 36.668 167.477V179ZM67.7227 168.355C67.7227 169.918 67.4427 171.376 66.8828 172.73C66.3229 174.072 65.5612 175.237 64.5977 176.227C63.6341 177.203 62.5013 177.978 61.1992 178.551C59.9102 179.111 58.5234 179.391 57.0391 179.391C55.5677 179.391 54.181 179.111 52.8789 178.551C51.5898 177.978 50.457 177.203 49.4805 176.227C48.5169 175.237 47.7552 174.072 47.1953 172.73C46.6354 171.376 46.3555 169.918 46.3555 168.355C46.3555 166.767 46.6354 165.296 47.1953 163.941C47.7552 162.587 48.5169 161.422 49.4805 160.445C50.457 159.456 51.5898 158.681 52.8789 158.121C54.181 157.561 55.5677 157.281 57.0391 157.281C58.5234 157.281 59.9102 157.548 61.1992 158.082C62.5013 158.603 63.6341 159.352 64.5977 160.328C65.5612 161.292 66.3229 162.457 66.8828 163.824C67.4427 165.178 67.7227 166.689 67.7227 168.355ZM62.3516 168.355C62.3516 167.496 62.2083 166.721 61.9219 166.031C61.6484 165.328 61.2708 164.729 60.7891 164.234C60.3073 163.727 59.7409 163.342 59.0898 163.082C58.4518 162.809 57.7682 162.672 57.0391 162.672C56.3099 162.672 55.6198 162.809 54.9688 163.082C54.3307 163.342 53.7708 163.727 53.2891 164.234C52.8203 164.729 52.4492 165.328 52.1758 166.031C51.9023 166.721 51.7656 167.496 51.7656 168.355C51.7656 169.163 51.9023 169.911 52.1758 170.602C52.4492 171.292 52.8203 171.891 53.2891 172.398C53.7708 172.906 54.3307 173.31 54.9688 173.609C55.6198 173.896 56.3099 174.039 57.0391 174.039C57.7682 174.039 58.4518 173.902 59.0898 173.629C59.7409 173.355 60.3073 172.971 60.7891 172.477C61.2708 171.982 61.6484 171.383 61.9219 170.68C62.2083 169.977 62.3516 169.202 62.3516 168.355ZM85.5547 168.355C85.5547 167.626 85.4115 166.923 85.125 166.246C84.8516 165.556 84.474 164.951 83.9922 164.43C83.5104 163.896 82.944 163.473 82.293 163.16C81.6549 162.835 80.9714 162.672 80.2422 162.672C79.513 162.672 78.8229 162.796 78.1719 163.043C77.5339 163.29 76.974 163.655 76.4922 164.137C76.0234 164.618 75.6523 165.217 75.3789 165.934C75.1055 166.637 74.9688 167.444 74.9688 168.355C74.9688 169.228 75.1055 170.016 75.3789 170.719C75.6523 171.409 76.0234 172.001 76.4922 172.496C76.974 172.991 77.5339 173.375 78.1719 173.648C78.8229 173.909 79.513 174.039 80.2422 174.039C80.9714 174.039 81.6549 173.883 82.293 173.57C82.944 173.245 83.5104 172.822 83.9922 172.301C84.474 171.767 84.8516 171.161 85.125 170.484C85.4115 169.794 85.5547 169.085 85.5547 168.355ZM90.9258 176.363C90.9258 177.835 90.6458 179.215 90.0859 180.504C89.526 181.793 88.7578 182.919 87.7812 183.883C86.8177 184.846 85.6849 185.608 84.3828 186.168C83.0938 186.728 81.7135 187.008 80.2422 187.008L77.5664 186.969V181.637L80.2031 181.676C81.0365 181.676 81.7461 181.565 82.332 181.344C82.918 181.135 83.4128 180.842 83.8164 180.465C84.2201 180.1 84.5391 179.677 84.7734 179.195C85.0208 178.714 85.2161 178.206 85.3594 177.672C85.151 178.01 84.8516 178.29 84.4609 178.512C84.0703 178.72 83.6341 178.889 83.1523 179.02C82.6836 179.163 82.1888 179.26 81.668 179.312C81.1602 179.365 80.6849 179.391 80.2422 179.391C78.7708 179.391 77.3841 179.137 76.082 178.629C74.793 178.121 73.6602 177.398 72.6836 176.461C71.7201 175.51 70.9583 174.352 70.3984 172.984C69.8385 171.617 69.5586 170.074 69.5586 168.355C69.5586 166.78 69.8385 165.315 70.3984 163.961C70.9583 162.607 71.7201 161.435 72.6836 160.445C73.6602 159.456 74.793 158.681 76.082 158.121C77.3841 157.561 78.7708 157.281 80.2422 157.281C80.9193 157.281 81.5898 157.366 82.2539 157.535C82.918 157.704 83.5625 157.939 84.1875 158.238C84.8125 158.538 85.4049 158.889 85.9648 159.293C86.5378 159.697 87.0716 160.133 87.5664 160.602L89.6367 158.121H90.9258V176.363ZM100.34 179H95.0078V158.082H96.2969L98.0547 160.562C98.9141 159.781 99.8906 159.182 100.984 158.766C102.078 158.336 103.211 158.121 104.383 158.121H109.09V163.434H104.383C103.823 163.434 103.296 163.538 102.801 163.746C102.306 163.954 101.876 164.241 101.512 164.605C101.147 164.97 100.861 165.4 100.652 165.895C100.444 166.389 100.34 166.917 100.34 167.477V179ZM131.434 179H130.145L128.074 176.129C127.566 176.585 127.026 177.014 126.453 177.418C125.893 177.809 125.301 178.154 124.676 178.453C124.051 178.74 123.406 178.967 122.742 179.137C122.091 179.306 121.427 179.391 120.75 179.391C119.279 179.391 117.892 179.143 116.59 178.648C115.301 178.154 114.168 177.438 113.191 176.5C112.228 175.549 111.466 174.391 110.906 173.023C110.346 171.656 110.066 170.1 110.066 168.355C110.066 166.728 110.346 165.237 110.906 163.883C111.466 162.516 112.228 161.344 113.191 160.367C114.168 159.391 115.301 158.635 116.59 158.102C117.892 157.555 119.279 157.281 120.75 157.281C121.427 157.281 122.098 157.366 122.762 157.535C123.426 157.704 124.07 157.939 124.695 158.238C125.32 158.538 125.913 158.889 126.473 159.293C127.046 159.697 127.579 160.133 128.074 160.602L130.145 158.121H131.434V179ZM126.062 168.355C126.062 167.626 125.919 166.923 125.633 166.246C125.359 165.556 124.982 164.951 124.5 164.43C124.018 163.896 123.452 163.473 122.801 163.16C122.163 162.835 121.479 162.672 120.75 162.672C120.021 162.672 119.331 162.796 118.68 163.043C118.042 163.29 117.482 163.655 117 164.137C116.531 164.618 116.16 165.217 115.887 165.934C115.613 166.637 115.477 167.444 115.477 168.355C115.477 169.267 115.613 170.081 115.887 170.797C116.16 171.5 116.531 172.092 117 172.574C117.482 173.056 118.042 173.421 118.68 173.668C119.331 173.915 120.021 174.039 120.75 174.039C121.479 174.039 122.163 173.883 122.801 173.57C123.452 173.245 124.018 172.822 124.5 172.301C124.982 171.767 125.359 171.161 125.633 170.484C125.919 169.794 126.062 169.085 126.062 168.355ZM162.117 179H156.805V165.719C156.805 165.354 156.733 165.009 156.59 164.684C156.46 164.358 156.271 164.072 156.023 163.824C155.776 163.577 155.49 163.388 155.164 163.258C154.839 163.115 154.493 163.043 154.129 163.043C153.764 163.043 153.419 163.115 153.094 163.258C152.781 163.388 152.501 163.577 152.254 163.824C152.02 164.072 151.831 164.358 151.688 164.684C151.557 165.009 151.492 165.354 151.492 165.719V179H146.16V165.719C146.16 165.354 146.089 165.009 145.945 164.684C145.815 164.358 145.626 164.072 145.379 163.824C145.132 163.577 144.845 163.388 144.52 163.258C144.194 163.115 143.849 163.043 143.484 163.043C143.12 163.043 142.775 163.115 142.449 163.258C142.137 163.388 141.857 163.577 141.609 163.824C141.375 164.072 141.186 164.358 141.043 164.684C140.913 165.009 140.848 165.354 140.848 165.719V179H135.516V158.082H136.805L138.25 159.684C138.992 159.059 139.806 158.577 140.691 158.238C141.59 157.887 142.521 157.711 143.484 157.711C144.461 157.711 145.411 157.893 146.336 158.258C147.273 158.622 148.094 159.254 148.797 160.152C149.122 159.71 149.493 159.332 149.91 159.02C150.327 158.707 150.763 158.453 151.219 158.258C151.688 158.062 152.169 157.926 152.664 157.848C153.159 157.757 153.647 157.711 154.129 157.711C155.236 157.711 156.271 157.919 157.234 158.336C158.211 158.753 159.057 159.326 159.773 160.055C160.503 160.771 161.076 161.617 161.492 162.594C161.909 163.57 162.117 164.612 162.117 165.719V179ZM186.277 179H184.988L182.918 176.129C182.41 176.585 181.87 177.014 181.297 177.418C180.737 177.809 180.145 178.154 179.52 178.453C178.895 178.74 178.25 178.967 177.586 179.137C176.935 179.306 176.271 179.391 175.594 179.391C174.122 179.391 172.736 179.143 171.434 178.648C170.145 178.154 169.012 177.438 168.035 176.5C167.072 175.549 166.31 174.391 165.75 173.023C165.19 171.656 164.91 170.1 164.91 168.355C164.91 166.728 165.19 165.237 165.75 163.883C166.31 162.516 167.072 161.344 168.035 160.367C169.012 159.391 170.145 158.635 171.434 158.102C172.736 157.555 174.122 157.281 175.594 157.281C176.271 157.281 176.941 157.366 177.605 157.535C178.27 157.704 178.914 157.939 179.539 158.238C180.164 158.538 180.757 158.889 181.316 159.293C181.889 159.697 182.423 160.133 182.918 160.602L184.988 158.121H186.277V179ZM180.906 168.355C180.906 167.626 180.763 166.923 180.477 166.246C180.203 165.556 179.826 164.951 179.344 164.43C178.862 163.896 178.296 163.473 177.645 163.16C177.007 162.835 176.323 162.672 175.594 162.672C174.865 162.672 174.174 162.796 173.523 163.043C172.885 163.29 172.326 163.655 171.844 164.137C171.375 164.618 171.004 165.217 170.73 165.934C170.457 166.637 170.32 167.444 170.32 168.355C170.32 169.267 170.457 170.081 170.73 170.797C171.004 171.5 171.375 172.092 171.844 172.574C172.326 173.056 172.885 173.421 173.523 173.668C174.174 173.915 174.865 174.039 175.594 174.039C176.323 174.039 177.007 173.883 177.645 173.57C178.296 173.245 178.862 172.822 179.344 172.301C179.826 171.767 180.203 171.161 180.477 170.484C180.763 169.794 180.906 169.085 180.906 168.355ZM198.367 188.004C197.898 187.978 197.449 187.88 197.02 187.711C196.59 187.542 196.206 187.359 195.867 187.164C195.477 186.93 195.112 186.676 194.773 186.402L195.848 183.473C196.147 183.694 196.447 183.883 196.746 184.039C197.007 184.182 197.273 184.312 197.547 184.43C197.82 184.547 198.068 184.605 198.289 184.605C198.576 184.605 198.81 184.514 198.992 184.332C199.188 184.15 199.285 183.909 199.285 183.609C199.285 183.245 199.142 182.984 198.855 182.828C198.582 182.672 198.289 182.594 197.977 182.594C197.56 182.594 197.182 182.704 196.844 182.926L198.133 179.234C196.87 179.039 195.691 178.629 194.598 178.004C193.517 177.379 192.573 176.604 191.766 175.68C190.971 174.755 190.346 173.701 189.891 172.516C189.435 171.331 189.207 170.081 189.207 168.766C189.207 167.164 189.487 165.667 190.047 164.273C190.607 162.88 191.368 161.669 192.332 160.641C193.309 159.599 194.441 158.779 195.73 158.18C197.033 157.581 198.419 157.281 199.891 157.281C200.763 157.281 201.616 157.392 202.449 157.613C203.296 157.835 204.096 158.16 204.852 158.59C205.62 159.007 206.323 159.521 206.961 160.133C207.612 160.745 208.172 161.448 208.641 162.242L204.734 166.168C204.539 165.621 204.272 165.133 203.934 164.703C203.595 164.26 203.211 163.889 202.781 163.59C202.365 163.29 201.909 163.062 201.414 162.906C200.919 162.75 200.411 162.672 199.891 162.672C199.161 162.672 198.471 162.822 197.82 163.121C197.182 163.421 196.622 163.844 196.141 164.391C195.672 164.924 195.301 165.562 195.027 166.305C194.754 167.047 194.617 167.867 194.617 168.766C194.617 169.495 194.754 170.178 195.027 170.816C195.301 171.454 195.672 172.014 196.141 172.496C196.622 172.978 197.182 173.355 197.82 173.629C198.471 173.902 199.161 174.039 199.891 174.039C200.411 174.039 200.913 173.967 201.395 173.824C201.876 173.681 202.326 173.479 202.742 173.219C203.172 172.945 203.549 172.62 203.875 172.242C204.214 171.852 204.487 171.422 204.695 170.953L208.602 174.879C208.133 175.543 207.599 176.142 207 176.676C206.414 177.21 205.776 177.665 205.086 178.043C204.396 178.421 203.667 178.72 202.898 178.941C202.13 179.163 201.342 179.299 200.535 179.352L200.125 180.523C200.529 180.576 200.913 180.693 201.277 180.875C201.642 181.057 201.954 181.292 202.215 181.578C202.488 181.878 202.703 182.223 202.859 182.613C203.016 183.017 203.094 183.453 203.094 183.922C203.094 184.573 202.983 185.152 202.762 185.66C202.54 186.168 202.234 186.591 201.844 186.93C201.453 187.281 200.984 187.548 200.438 187.73C199.904 187.913 199.318 188.004 198.68 188.004H198.367ZM231.512 179H230.223L228.152 176.129C227.645 176.585 227.104 177.014 226.531 177.418C225.971 177.809 225.379 178.154 224.754 178.453C224.129 178.74 223.484 178.967 222.82 179.137C222.169 179.306 221.505 179.391 220.828 179.391C219.357 179.391 217.97 179.143 216.668 178.648C215.379 178.154 214.246 177.438 213.27 176.5C212.306 175.549 211.544 174.391 210.984 173.023C210.424 171.656 210.145 170.1 210.145 168.355C210.145 166.728 210.424 165.237 210.984 163.883C211.544 162.516 212.306 161.344 213.27 160.367C214.246 159.391 215.379 158.635 216.668 158.102C217.97 157.555 219.357 157.281 220.828 157.281C221.505 157.281 222.176 157.366 222.84 157.535C223.504 157.704 224.148 157.939 224.773 158.238C225.398 158.538 225.991 158.889 226.551 159.293C227.124 159.697 227.658 160.133 228.152 160.602L230.223 158.121H231.512V179ZM226.141 168.355C226.141 167.626 225.997 166.923 225.711 166.246C225.438 165.556 225.06 164.951 224.578 164.43C224.096 163.896 223.53 163.473 222.879 163.16C222.241 162.835 221.557 162.672 220.828 162.672C220.099 162.672 219.409 162.796 218.758 163.043C218.12 163.29 217.56 163.655 217.078 164.137C216.609 164.618 216.238 165.217 215.965 165.934C215.691 166.637 215.555 167.444 215.555 168.355C215.555 169.267 215.691 170.081 215.965 170.797C216.238 171.5 216.609 172.092 217.078 172.574C217.56 173.056 218.12 173.421 218.758 173.668C219.409 173.915 220.099 174.039 220.828 174.039C221.557 174.039 222.241 173.883 222.879 173.57C223.53 173.245 224.096 172.822 224.578 172.301C225.06 171.767 225.438 171.161 225.711 170.484C225.997 169.794 226.141 169.085 226.141 168.355ZM226.824 149.254C226.902 149.488 226.974 149.742 227.039 150.016C227.091 150.25 227.137 150.517 227.176 150.816C227.228 151.116 227.254 151.435 227.254 151.773C227.254 152.424 227.156 153.01 226.961 153.531C226.766 154.039 226.499 154.475 226.16 154.84C225.835 155.191 225.438 155.465 224.969 155.66C224.513 155.842 224.025 155.934 223.504 155.934C222.918 155.934 222.417 155.81 222 155.562C221.583 155.302 221.212 155.022 220.887 154.723C220.574 154.41 220.275 154.13 219.988 153.883C219.715 153.622 219.422 153.492 219.109 153.492C218.862 153.492 218.66 153.603 218.504 153.824C218.348 154.046 218.27 154.267 218.27 154.488C218.27 154.749 218.309 155.003 218.387 155.25C218.478 155.484 218.595 155.712 218.738 155.934L215.066 156.09C214.936 155.855 214.819 155.582 214.715 155.27C214.624 155.009 214.546 154.697 214.48 154.332C214.415 153.954 214.383 153.538 214.383 153.082C214.383 151.923 214.734 151.018 215.438 150.367C216.141 149.703 217.098 149.371 218.309 149.371C218.816 149.371 219.246 149.436 219.598 149.566C219.962 149.684 220.275 149.833 220.535 150.016C220.809 150.198 221.043 150.4 221.238 150.621C221.434 150.829 221.609 151.025 221.766 151.207C221.935 151.389 222.098 151.546 222.254 151.676C222.423 151.793 222.612 151.852 222.82 151.852C223.042 151.852 223.211 151.754 223.328 151.559C223.445 151.363 223.504 151.116 223.504 150.816C223.504 150.465 223.4 150.113 223.191 149.762L226.824 149.254ZM255.809 168.355C255.809 169.918 255.529 171.376 254.969 172.73C254.409 174.072 253.647 175.237 252.684 176.227C251.72 177.203 250.587 177.978 249.285 178.551C247.996 179.111 246.609 179.391 245.125 179.391C243.654 179.391 242.267 179.111 240.965 178.551C239.676 177.978 238.543 177.203 237.566 176.227C236.603 175.237 235.841 174.072 235.281 172.73C234.721 171.376 234.441 169.918 234.441 168.355C234.441 166.767 234.721 165.296 235.281 163.941C235.841 162.587 236.603 161.422 237.566 160.445C238.543 159.456 239.676 158.681 240.965 158.121C242.267 157.561 243.654 157.281 245.125 157.281C246.609 157.281 247.996 157.548 249.285 158.082C250.587 158.603 251.72 159.352 252.684 160.328C253.647 161.292 254.409 162.457 254.969 163.824C255.529 165.178 255.809 166.689 255.809 168.355ZM250.438 168.355C250.438 167.496 250.294 166.721 250.008 166.031C249.734 165.328 249.357 164.729 248.875 164.234C248.393 163.727 247.827 163.342 247.176 163.082C246.538 162.809 245.854 162.672 245.125 162.672C244.396 162.672 243.706 162.809 243.055 163.082C242.417 163.342 241.857 163.727 241.375 164.234C240.906 164.729 240.535 165.328 240.262 166.031C239.988 166.721 239.852 167.496 239.852 168.355C239.852 169.163 239.988 169.911 240.262 170.602C240.535 171.292 240.906 171.891 241.375 172.398C241.857 172.906 242.417 173.31 243.055 173.609C243.706 173.896 244.396 174.039 245.125 174.039C245.854 174.039 246.538 173.902 247.176 173.629C247.827 173.355 248.393 172.971 248.875 172.477C249.357 171.982 249.734 171.383 250.008 170.68C250.294 169.977 250.438 169.202 250.438 168.355Z" fill="#212121"/>
<path d="M274.656 167.555H271.688C271.258 167.594 270.874 167.717 270.535 167.926C270.392 168.017 270.249 168.134 270.105 168.277C269.975 168.408 269.858 168.577 269.754 168.785C269.65 168.98 269.565 169.215 269.5 169.488C269.448 169.762 269.428 170.081 269.441 170.445V177.398C269.441 178.193 269.285 178.928 268.973 179.605C268.66 180.296 268.243 180.888 267.723 181.383C267.202 181.891 266.596 182.288 265.906 182.574C265.229 182.861 264.526 183.004 263.797 183.004H258.211V177.398H263.797V170.445C263.797 169.885 263.842 169.378 263.934 168.922C264.025 168.453 264.148 168.036 264.305 167.672C264.461 167.294 264.637 166.962 264.832 166.676C265.027 166.389 265.229 166.135 265.438 165.914C265.919 165.406 266.466 165.022 267.078 164.762C266.466 164.488 265.919 164.111 265.438 163.629C265.229 163.434 265.027 163.206 264.832 162.945C264.637 162.672 264.461 162.372 264.305 162.047C264.148 161.708 264.025 161.337 263.934 160.934C263.842 160.53 263.797 160.087 263.797 159.605V152.594H258.211V147.008H263.797C264.565 147.008 265.288 147.151 265.965 147.438C266.655 147.711 267.254 148.102 267.762 148.609C268.283 149.104 268.693 149.697 268.992 150.387C269.292 151.064 269.441 151.799 269.441 152.594V159.488C269.467 159.957 269.559 160.374 269.715 160.738C269.858 161.051 270.079 161.337 270.379 161.598C270.678 161.845 271.115 161.969 271.688 161.969H274.656V167.555Z" fill="#00E5FF"/>
</g>
<path d="M0.796875 34.5625H4.33594C5.00781 34.5625 5.52344 34.4141 5.88281 34.1172C6.25781 33.8047 6.53125 33.4609 6.70312 33.0859C6.89062 32.6484 7 32.1484 7.03125 31.5859V23.3125C7.03125 22.3594 7.21094 21.4766 7.57031 20.6641C7.92969 19.8359 8.41406 19.125 9.02344 18.5312C9.64844 17.9219 10.3672 17.4531 11.1797 17.125C12.0078 16.7812 12.8828 16.6094 13.8047 16.6094H20.5312V23.3125H13.8047V31.7266C13.8047 32.3047 13.75 32.8359 13.6406 33.3203C13.5312 33.8047 13.3828 34.25 13.1953 34.6562C13.0078 35.0469 12.7969 35.4062 12.5625 35.7344C12.3281 36.0469 12.0859 36.3203 11.8359 36.5547C11.2578 37.1328 10.6016 37.5859 9.86719 37.9141C10.6016 38.2266 11.2578 38.6875 11.8359 39.2969C12.0859 39.5625 12.3281 39.8672 12.5625 40.2109C12.7969 40.5547 13.0078 40.9531 13.1953 41.4062C13.3828 41.8438 13.5312 42.3438 13.6406 42.9062C13.75 43.4531 13.8047 44.0625 13.8047 44.7344V53.0781H20.5312V59.8047H13.8047C12.9297 59.8047 12.0781 59.6328 11.25 59.2891C10.4375 58.9453 9.71875 58.4688 9.09375 57.8594C8.46875 57.2656 7.96875 56.5547 7.59375 55.7266C7.21875 54.9141 7.03125 54.0312 7.03125 53.0781V44.7344C7.04688 43.875 6.91406 43.2109 6.63281 42.7422C6.36719 42.2734 6.0625 41.9297 5.71875 41.7109C5.3125 41.4609 4.85156 41.3125 4.33594 41.2656H0.796875V34.5625Z" fill="#00E5FF"/>
<path d="M48.9375 55H25.4062V21.3906H32.1328V48.2734H48.9375V55ZM59.3203 23.0781C59.3203 23.6719 59.2031 24.2266 58.9688 24.7422C58.75 25.2578 58.4453 25.7109 58.0547 26.1016C57.6641 26.4766 57.2031 26.7812 56.6719 27.0156C56.1562 27.2344 55.6016 27.3438 55.0078 27.3438C54.4141 27.3438 53.8516 27.2344 53.3203 27.0156C52.8047 26.7812 52.3516 26.4766 51.9609 26.1016C51.5859 25.7109 51.2812 25.2578 51.0469 24.7422C50.8281 24.2266 50.7188 23.6719 50.7188 23.0781C50.7188 22.5 50.8281 21.9531 51.0469 21.4375C51.2812 20.9062 51.5859 20.4531 51.9609 20.0781C52.3516 19.6875 52.8047 19.3828 53.3203 19.1641C53.8516 18.9297 54.4141 18.8125 55.0078 18.8125C55.6016 18.8125 56.1562 18.9297 56.6719 19.1641C57.2031 19.3828 57.6641 19.6875 58.0547 20.0781C58.4453 20.4531 58.75 20.9062 58.9688 21.4375C59.2031 21.9531 59.3203 22.5 59.3203 23.0781ZM58.2188 55H51.7734V29.8984H58.2188V55ZM69.5156 55H63.1172V29.8984H64.6641L66.7734 32.3359C67.8047 31.3984 68.9688 30.6797 70.2656 30.1797C71.5781 29.6641 72.9453 29.4062 74.3672 29.4062C75.8984 29.4062 77.3438 29.7031 78.7031 30.2969C80.0625 30.875 81.25 31.6797 82.2656 32.7109C83.2812 33.7266 84.0781 34.9219 84.6562 36.2969C85.25 37.6562 85.5469 39.1094 85.5469 40.6562V55H79.1484V40.6562C79.1484 40 79.0234 39.3828 78.7734 38.8047C78.5234 38.2109 78.1797 37.6953 77.7422 37.2578C77.3047 36.8203 76.7969 36.4766 76.2188 36.2266C75.6406 35.9766 75.0234 35.8516 74.3672 35.8516C73.6953 35.8516 73.0625 35.9766 72.4688 36.2266C71.875 36.4766 71.3594 36.8203 70.9219 37.2578C70.4844 37.6953 70.1406 38.2109 69.8906 38.8047C69.6406 39.3828 69.5156 40 69.5156 40.6562V55ZM107.977 42.2266C107.977 41.3516 107.805 40.5078 107.461 39.6953C107.133 38.8672 106.68 38.1406 106.102 37.5156C105.523 36.875 104.844 36.3672 104.062 35.9922C103.297 35.6016 102.477 35.4062 101.602 35.4062C100.727 35.4062 99.8984 35.5547 99.1172 35.8516C98.3516 36.1484 97.6797 36.5859 97.1016 37.1641C96.5391 37.7422 96.0938 38.4609 95.7656 39.3203C95.4375 40.1641 95.2734 41.1328 95.2734 42.2266C95.2734 43.2734 95.4375 44.2188 95.7656 45.0625C96.0938 45.8906 96.5391 46.6016 97.1016 47.1953C97.6797 47.7891 98.3516 48.25 99.1172 48.5781C99.8984 48.8906 100.727 49.0469 101.602 49.0469C102.477 49.0469 103.297 48.8594 104.062 48.4844C104.844 48.0938 105.523 47.5859 106.102 46.9609C106.68 46.3203 107.133 45.5938 107.461 44.7812C107.805 43.9531 107.977 43.1016 107.977 42.2266ZM114.422 51.8359C114.422 53.6016 114.086 55.2578 113.414 56.8047C112.742 58.3516 111.82 59.7031 110.648 60.8594C109.492 62.0156 108.133 62.9297 106.57 63.6016C105.023 64.2734 103.367 64.6094 101.602 64.6094L98.3906 64.5625V58.1641L101.555 58.2109C102.555 58.2109 103.406 58.0781 104.109 57.8125C104.812 57.5625 105.406 57.2109 105.891 56.7578C106.375 56.3203 106.758 55.8125 107.039 55.2344C107.336 54.6562 107.57 54.0469 107.742 53.4062C107.492 53.8125 107.133 54.1484 106.664 54.4141C106.195 54.6641 105.672 54.8672 105.094 55.0234C104.531 55.1953 103.938 55.3125 103.312 55.375C102.703 55.4375 102.133 55.4688 101.602 55.4688C99.8359 55.4688 98.1719 55.1641 96.6094 54.5547C95.0625 53.9453 93.7031 53.0781 92.5312 51.9531C91.375 50.8125 90.4609 49.4219 89.7891 47.7812C89.1172 46.1406 88.7812 44.2891 88.7812 42.2266C88.7812 40.3359 89.1172 38.5781 89.7891 36.9531C90.4609 35.3281 91.375 33.9219 92.5312 32.7344C93.7031 31.5469 95.0625 30.6172 96.6094 29.9453C98.1719 29.2734 99.8359 28.9375 101.602 28.9375C102.414 28.9375 103.219 29.0391 104.016 29.2422C104.812 29.4453 105.586 29.7266 106.336 30.0859C107.086 30.4453 107.797 30.8672 108.469 31.3516C109.156 31.8359 109.797 32.3594 110.391 32.9219L112.875 29.9453H114.422V51.8359ZM137.766 52.0703C137.25 52.5391 136.695 52.9844 136.102 53.4062C135.523 53.8125 134.914 54.1719 134.273 54.4844C133.633 54.7812 132.969 55.0156 132.281 55.1875C131.609 55.375 130.922 55.4688 130.219 55.4688C128.672 55.4688 127.219 55.1953 125.859 54.6484C124.5 54.1016 123.305 53.3281 122.273 52.3281C121.258 51.3125 120.453 50.0859 119.859 48.6484C119.281 47.1953 118.992 45.5703 118.992 43.7734V29.8984H125.367V43.7734C125.367 44.6172 125.492 45.375 125.742 46.0469C126.008 46.7031 126.359 47.2578 126.797 47.7109C127.234 48.1641 127.742 48.5078 128.32 48.7422C128.914 48.9766 129.547 49.0938 130.219 49.0938C130.875 49.0938 131.492 48.9453 132.07 48.6484C132.664 48.3359 133.18 47.9297 133.617 47.4297C134.055 46.9297 134.398 46.3672 134.648 45.7422C134.898 45.1016 135.023 44.4453 135.023 43.7734V29.8984H141.422V55H139.875L137.766 52.0703ZM170.625 55H169.078L166.594 51.5547C165.984 52.1016 165.336 52.6172 164.648 53.1016C163.977 53.5703 163.266 53.9844 162.516 54.3438C161.766 54.6875 160.992 54.9609 160.195 55.1641C159.414 55.3672 158.617 55.4688 157.805 55.4688C156.039 55.4688 154.375 55.1719 152.812 54.5781C151.266 53.9844 149.906 53.125 148.734 52C147.578 50.8594 146.664 49.4688 145.992 47.8281C145.32 46.1875 144.984 44.3203 144.984 42.2266C144.984 40.2734 145.32 38.4844 145.992 36.8594C146.664 35.2188 147.578 33.8125 148.734 32.6406C149.906 31.4688 151.266 30.5625 152.812 29.9219C154.375 29.2656 156.039 28.9375 157.805 28.9375C158.617 28.9375 159.422 29.0391 160.219 29.2422C161.016 29.4453 161.789 29.7266 162.539 30.0859C163.289 30.4453 164 30.8672 164.672 31.3516C165.359 31.8359 166 32.3594 166.594 32.9219L169.078 29.9453H170.625V55ZM164.18 42.2266C164.18 41.3516 164.008 40.5078 163.664 39.6953C163.336 38.8672 162.883 38.1406 162.305 37.5156C161.727 36.875 161.047 36.3672 160.266 35.9922C159.5 35.6016 158.68 35.4062 157.805 35.4062C156.93 35.4062 156.102 35.5547 155.32 35.8516C154.555 36.1484 153.883 36.5859 153.305 37.1641C152.742 37.7422 152.297 38.4609 151.969 39.3203C151.641 40.1641 151.477 41.1328 151.477 42.2266C151.477 43.3203 151.641 44.2969 151.969 45.1562C152.297 46 152.742 46.7109 153.305 47.2891C153.883 47.8672 154.555 48.3047 155.32 48.6016C156.102 48.8984 156.93 49.0469 157.805 49.0469C158.68 49.0469 159.5 48.8594 160.266 48.4844C161.047 48.0938 161.727 47.5859 162.305 46.9609C162.883 46.3203 163.336 45.5938 163.664 44.7812C164.008 43.9531 164.18 43.1016 164.18 42.2266ZM193.383 42.2266C193.383 41.3516 193.211 40.5078 192.867 39.6953C192.539 38.8672 192.086 38.1406 191.508 37.5156C190.93 36.875 190.25 36.3672 189.469 35.9922C188.703 35.6016 187.883 35.4062 187.008 35.4062C186.133 35.4062 185.305 35.5547 184.523 35.8516C183.758 36.1484 183.086 36.5859 182.508 37.1641C181.945 37.7422 181.5 38.4609 181.172 39.3203C180.844 40.1641 180.68 41.1328 180.68 42.2266C180.68 43.2734 180.844 44.2188 181.172 45.0625C181.5 45.8906 181.945 46.6016 182.508 47.1953C183.086 47.7891 183.758 48.25 184.523 48.5781C185.305 48.8906 186.133 49.0469 187.008 49.0469C187.883 49.0469 188.703 48.8594 189.469 48.4844C190.25 48.0938 190.93 47.5859 191.508 46.9609C192.086 46.3203 192.539 45.5938 192.867 44.7812C193.211 43.9531 193.383 43.1016 193.383 42.2266ZM199.828 51.8359C199.828 53.6016 199.492 55.2578 198.82 56.8047C198.148 58.3516 197.227 59.7031 196.055 60.8594C194.898 62.0156 193.539 62.9297 191.977 63.6016C190.43 64.2734 188.773 64.6094 187.008 64.6094L183.797 64.5625V58.1641L186.961 58.2109C187.961 58.2109 188.812 58.0781 189.516 57.8125C190.219 57.5625 190.812 57.2109 191.297 56.7578C191.781 56.3203 192.164 55.8125 192.445 55.2344C192.742 54.6562 192.977 54.0469 193.148 53.4062C192.898 53.8125 192.539 54.1484 192.07 54.4141C191.602 54.6641 191.078 54.8672 190.5 55.0234C189.938 55.1953 189.344 55.3125 188.719 55.375C188.109 55.4375 187.539 55.4688 187.008 55.4688C185.242 55.4688 183.578 55.1641 182.016 54.5547C180.469 53.9453 179.109 53.0781 177.938 51.9531C176.781 50.8125 175.867 49.4219 175.195 47.7812C174.523 46.1406 174.188 44.2891 174.188 42.2266C174.188 40.3359 174.523 38.5781 175.195 36.9531C175.867 35.3281 176.781 33.9219 177.938 32.7344C179.109 31.5469 180.469 30.6172 182.016 29.9453C183.578 29.2734 185.242 28.9375 187.008 28.9375C187.82 28.9375 188.625 29.0391 189.422 29.2422C190.219 29.4453 190.992 29.7266 191.742 30.0859C192.492 30.4453 193.203 30.8672 193.875 31.3516C194.562 31.8359 195.203 32.3594 195.797 32.9219L198.281 29.9453H199.828V51.8359ZM214.711 48.8594C214.961 48.9375 215.211 48.9922 215.461 49.0234C215.711 49.0391 215.961 49.0469 216.211 49.0469C216.836 49.0469 217.438 48.9609 218.016 48.7891C218.594 48.6172 219.133 48.375 219.633 48.0625C220.148 47.7344 220.602 47.3438 220.992 46.8906C221.398 46.4219 221.727 45.9062 221.977 45.3438L226.664 50.0547C226.07 50.8984 225.383 51.6562 224.602 52.3281C223.836 53 223 53.5703 222.094 54.0391C221.203 54.5078 220.258 54.8594 219.258 55.0938C218.273 55.3438 217.258 55.4688 216.211 55.4688C214.445 55.4688 212.781 55.1406 211.219 54.4844C209.672 53.8281 208.312 52.9141 207.141 51.7422C205.984 50.5703 205.07 49.1797 204.398 47.5703C203.727 45.9453 203.391 44.1641 203.391 42.2266C203.391 40.2422 203.727 38.4297 204.398 36.7891C205.07 35.1484 205.984 33.75 207.141 32.5938C208.312 31.4375 209.672 30.5391 211.219 29.8984C212.781 29.2578 214.445 28.9375 216.211 28.9375C217.258 28.9375 218.281 29.0625 219.281 29.3125C220.281 29.5625 221.227 29.9219 222.117 30.3906C223.023 30.8594 223.867 31.4375 224.648 32.125C225.43 32.7969 226.117 33.5547 226.711 34.3984L214.711 48.8594ZM217.992 35.6641C217.695 35.5547 217.398 35.4844 217.102 35.4531C216.82 35.4219 216.523 35.4062 216.211 35.4062C215.336 35.4062 214.508 35.5703 213.727 35.8984C212.961 36.2109 212.289 36.6641 211.711 37.2578C211.148 37.8516 210.703 38.5703 210.375 39.4141C210.047 40.2422 209.883 41.1797 209.883 42.2266C209.883 42.4609 209.891 42.7266 209.906 43.0234C209.938 43.3203 209.977 43.625 210.023 43.9375C210.086 44.2344 210.156 44.5234 210.234 44.8047C210.312 45.0859 210.414 45.3359 210.539 45.5547L217.992 35.6641ZM261.867 55H255.492V39.0625C255.492 38.625 255.406 38.2109 255.234 37.8203C255.078 37.4297 254.852 37.0859 254.555 36.7891C254.258 36.4922 253.914 36.2656 253.523 36.1094C253.133 35.9375 252.719 35.8516 252.281 35.8516C251.844 35.8516 251.43 35.9375 251.039 36.1094C250.664 36.2656 250.328 36.4922 250.031 36.7891C249.75 37.0859 249.523 37.4297 249.352 37.8203C249.195 38.2109 249.117 38.625 249.117 39.0625V55H242.719V39.0625C242.719 38.625 242.633 38.2109 242.461 37.8203C242.305 37.4297 242.078 37.0859 241.781 36.7891C241.484 36.4922 241.141 36.2656 240.75 36.1094C240.359 35.9375 239.945 35.8516 239.508 35.8516C239.07 35.8516 238.656 35.9375 238.266 36.1094C237.891 36.2656 237.555 36.4922 237.258 36.7891C236.977 37.0859 236.75 37.4297 236.578 37.8203C236.422 38.2109 236.344 38.625 236.344 39.0625V55H229.945V29.8984H231.492L233.227 31.8203C234.117 31.0703 235.094 30.4922 236.156 30.0859C237.234 29.6641 238.352 29.4531 239.508 29.4531C240.68 29.4531 241.82 29.6719 242.93 30.1094C244.055 30.5469 245.039 31.3047 245.883 32.3828C246.273 31.8516 246.719 31.3984 247.219 31.0234C247.719 30.6484 248.242 30.3438 248.789 30.1094C249.352 29.875 249.93 29.7109 250.523 29.6172C251.117 29.5078 251.703 29.4531 252.281 29.4531C253.609 29.4531 254.852 29.7031 256.008 30.2031C257.18 30.7031 258.195 31.3906 259.055 32.2656C259.93 33.125 260.617 34.1406 261.117 35.3125C261.617 36.4844 261.867 37.7344 261.867 39.0625V55Z" fill="#212121"/>
<path d="M146.287 123H144.224L140.912 118.406C140.099 119.135 139.234 119.823 138.318 120.469C137.422 121.094 136.474 121.646 135.474 122.125C134.474 122.583 133.443 122.948 132.38 123.219C131.339 123.49 130.276 123.625 129.193 123.625C126.839 123.625 124.62 123.188 122.537 122.312C120.474 121.417 118.662 120.188 117.099 118.625C115.557 117.042 114.339 115.177 113.443 113.031C112.547 110.865 112.099 108.51 112.099 105.969C112.099 103.448 112.547 101.104 113.443 98.9375C114.339 96.7708 115.557 94.8958 117.099 93.3125C118.662 91.7292 120.474 90.4896 122.537 89.5938C124.62 88.6979 126.839 88.25 129.193 88.25C129.943 88.25 130.714 88.3125 131.505 88.4375C132.318 88.5625 133.099 88.7708 133.849 89.0625C134.62 89.3333 135.339 89.6979 136.005 90.1562C136.672 90.6146 137.234 91.1771 137.693 91.8438V76.2188H146.287V123ZM137.693 105.969C137.693 104.802 137.464 103.677 137.005 102.594C136.568 101.49 135.964 100.521 135.193 99.6875C134.422 98.8333 133.516 98.1562 132.474 97.6562C131.453 97.1354 130.359 96.875 129.193 96.875C128.026 96.875 126.922 97.0833 125.88 97.5C124.859 97.9167 123.964 98.5208 123.193 99.3125C122.443 100.083 121.849 101.031 121.412 102.156C120.974 103.281 120.755 104.552 120.755 105.969C120.755 107.198 120.974 108.365 121.412 109.469C121.849 110.573 122.443 111.542 123.193 112.375C123.964 113.208 124.859 113.865 125.88 114.344C126.922 114.823 128.026 115.062 129.193 115.062C130.359 115.062 131.453 114.812 132.474 114.312C133.516 113.792 134.422 113.115 135.193 112.281C135.964 111.427 136.568 110.458 137.005 109.375C137.464 108.271 137.693 107.135 137.693 105.969ZM166.13 114.812C166.464 114.917 166.797 114.99 167.13 115.031C167.464 115.052 167.797 115.062 168.13 115.062C168.964 115.062 169.766 114.948 170.537 114.719C171.307 114.49 172.026 114.167 172.693 113.75C173.38 113.312 173.984 112.792 174.505 112.188C175.047 111.562 175.484 110.875 175.818 110.125L182.068 116.406C181.276 117.531 180.359 118.542 179.318 119.438C178.297 120.333 177.182 121.094 175.974 121.719C174.787 122.344 173.526 122.812 172.193 123.125C170.88 123.458 169.526 123.625 168.13 123.625C165.776 123.625 163.557 123.188 161.474 122.312C159.412 121.438 157.599 120.219 156.037 118.656C154.495 117.094 153.276 115.24 152.38 113.094C151.484 110.927 151.037 108.552 151.037 105.969C151.037 103.323 151.484 100.906 152.38 98.7188C153.276 96.5312 154.495 94.6667 156.037 93.125C157.599 91.5833 159.412 90.3854 161.474 89.5312C163.557 88.6771 165.776 88.25 168.13 88.25C169.526 88.25 170.891 88.4167 172.224 88.75C173.557 89.0833 174.818 89.5625 176.005 90.1875C177.214 90.8125 178.339 91.5833 179.38 92.5C180.422 93.3958 181.339 94.4062 182.13 95.5312L166.13 114.812ZM170.505 97.2188C170.109 97.0729 169.714 96.9792 169.318 96.9375C168.943 96.8958 168.547 96.875 168.13 96.875C166.964 96.875 165.859 97.0938 164.818 97.5312C163.797 97.9479 162.901 98.5521 162.13 99.3438C161.38 100.135 160.787 101.094 160.349 102.219C159.912 103.323 159.693 104.573 159.693 105.969C159.693 106.281 159.703 106.635 159.724 107.031C159.766 107.427 159.818 107.833 159.88 108.25C159.964 108.646 160.057 109.031 160.162 109.406C160.266 109.781 160.401 110.115 160.568 110.406L170.505 97.2188Z" fill="#212121"/>
<rect x="39.5" y="0.5" width="208" height="190" rx="15.5" stroke="black"/>
</g>
<defs>
<filter id="filter0_d" x="2.19922" y="147.008" width="276.457" height="48.9961" filterUnits="userSpaceOnUse" color-interpolation-filters="sRGB">
<feFlood flood-opacity="0" result="BackgroundImageFix"/>
<feColorMatrix in="SourceAlpha" type="matrix" values="0 0 0 0 0 0 0 0 0 0 0 0 0 0 0 0 0 0 127 0"/>
<feOffset dy="4"/>
<feGaussianBlur stdDeviation="2"/>
<feColorMatrix type="matrix" values="0 0 0 0 0 0 0 0 0 0 0 0 0 0 0 0 0 0 0.25 0"/>
<feBlend mode="normal" in2="BackgroundImageFix" result="effect1_dropShadow"/>
<feBlend mode="normal" in="SourceGraphic" in2="effect1_dropShadow" result="shape"/>
</filter>
</defs>
</svg>
